<?xml version="1.0" encoding="UTF-8"?>
<svg width="213px" height="214px" viewBox="0 0 213 214" version="1.1" xmlns="http://www.w3.org/2000/svg" xmlns:xlink="http://www.w3.org/1999/xlink">
    <title>tier</title>
    <g id="website" stroke="none" stroke-width="1" fill="none" fill-rule="evenodd">
        <g id="squareblack_MAIN" transform="translate(-321, -165)">
            <g id="topcircle" transform="translate(318, 163)">
                <g id="tier" transform="translate(109.6668, 108.7365) rotate(115) translate(-109.6668, -108.7365)translate(29.628, 28.7346)">
                    <circle id="Oval" cx="80.0776132" cy="80.0038294" r="80"></circle>
                    <g id="See-available-design" transform="translate(-0, -0)" fill="#1E1E1E" fill-rule="nonzero">
                        <path d="M89.1116325,159.72188 C87.1570492,159.867496 85.4525031,159.533209 83.9979944,158.719019 C82.5434856,157.90483 81.4775701,156.720748 80.8002479,155.166775 L83.09109,153.612284 C84.0975297,156.084343 86.0567148,157.211904 88.9686451,156.994967 C90.4046655,156.887984 91.4797089,156.512076 92.1937753,155.867244 C92.9078418,155.222411 93.2284711,154.411349 93.1556633,153.434057 C93.0813697,152.436821 92.6466996,151.717125 91.8516531,151.27497 C91.0566066,150.832815 89.7507407,150.398633 87.9340555,149.972423 C87.0356852,149.758575 86.3508208,149.583974 85.8794621,149.448619 C85.4081034,149.313264 84.8153762,149.096701 84.1012803,148.798931 C83.3871844,148.501161 82.8468619,148.180417 82.4803129,147.836699 C82.1137638,147.492982 81.7735743,147.031981 81.4597443,146.453699 C81.1459143,145.875416 80.9607677,145.207325 80.9043045,144.449426 C80.7690901,142.634455 81.2999671,141.145901 82.4969355,139.983762 C83.6939039,138.821623 85.2098456,138.172203 87.0447606,138.035503 C88.700173,137.912176 90.1723829,138.223661 91.4613904,138.969958 C92.7503978,139.716256 93.7553075,140.754466 94.4761193,142.08459 L92.2428825,143.604707 C91.1848954,141.51754 89.5190524,140.558652 87.2453534,140.728041 C86.1085039,140.812736 85.2118486,141.160313 84.5553876,141.770771 C83.8989265,142.381228 83.606357,143.165131 83.6776789,144.122478 C83.746029,145.039935 84.1271226,145.713484 84.8209596,146.143124 C85.5147965,146.572763 86.6887929,146.986687 88.3429485,147.384894 C88.9347185,147.521306 89.3532436,147.620487 89.5985239,147.682435 C89.8438041,147.744383 90.2281688,147.856136 90.7516181,148.017694 C91.2750674,148.179251 91.6609181,148.310949 91.9091701,148.412787 C92.157422,148.514625 92.4941538,148.66001 92.9193653,148.848941 C93.3445768,149.037873 93.6643356,149.224633 93.8786416,149.409222 C94.0929476,149.59381 94.3455001,149.820674 94.6362991,150.089813 C94.9270981,150.358953 95.1434758,150.63865 95.2854323,150.928906 C95.4273888,151.219161 95.5577299,151.555407 95.6764557,151.937643 C95.7951815,152.319879 95.870889,152.730389 95.9035782,153.169173 C96.0402785,155.004088 95.4809703,156.514816 94.2256536,157.701357 C92.9703369,158.887898 91.2656632,159.561406 89.1116325,159.72188 Z" id="Path"></path>
                        <path d="M100.998474,150.414199 C101.691829,151.589979 102.61935,152.364272 103.781036,152.737079 C104.942723,153.109886 106.192646,153.058736 107.530807,152.58363 C109.396693,151.921158 110.509456,150.751432 110.869096,149.074453 L113.382724,149.519063 C112.763023,152.137302 111.067894,153.938256 108.297336,154.921927 C106.054504,155.718232 103.981761,155.663585 102.079107,154.757985 C100.176454,153.852386 98.8437037,152.325288 98.080857,150.176692 C97.3247018,148.046944 97.3836155,146.03105 98.257598,144.12901 C99.1315805,142.22697 100.661717,140.887836 102.848008,140.111606 C104.921214,139.375525 106.872064,139.505285 108.700555,140.500884 C110.529047,141.496484 111.807987,143.021463 112.537376,145.075823 C112.664517,145.433922 112.766733,145.811483 112.844023,146.208504 L100.998474,150.414199 Z M103.671079,142.429828 C102.351766,142.898242 101.39078,143.658592 100.788123,144.710877 C100.185465,145.763162 100.0013,146.948071 100.235628,148.265603 L109.678142,144.913092 C108.995715,143.648539 108.106641,142.818149 107.01092,142.421922 C105.9152,142.025694 104.801919,142.028329 103.671079,142.429828 Z" id="Shape"></path>
                        <path d="M118.510407,142.591114 C119.485359,143.546452 120.582159,144.05326 121.800807,144.11154 C123.019455,144.16982 124.213195,143.795776 125.382027,142.989407 C127.011807,141.865032 127.78256,140.446427 127.694285,138.733591 L130.237125,138.510062 C130.318744,141.1994 129.149566,143.378832 126.72959,145.048357 C124.770561,146.399877 122.754762,146.885472 120.682191,146.505141 C118.609621,146.12481 116.925968,144.996287 115.631235,143.11957 C114.347858,141.259316 113.881149,139.297307 114.231108,137.233541 C114.581066,135.169775 115.710866,133.479168 117.620507,132.16172 C119.431374,130.912415 121.348972,130.531015 123.373303,131.01752 C125.397633,131.504024 127.028772,132.644479 128.266719,134.438883 C128.482508,134.751669 128.679282,135.089722 128.857041,135.453043 L118.510407,142.591114 Z M119.017457,134.186598 C117.865087,134.98161 117.134573,135.965467 116.825916,137.138169 C116.517258,138.310871 116.647177,139.502948 117.215673,140.714398 L125.463348,135.024384 C124.475892,133.980482 123.401649,133.409516 122.240619,133.311485 C121.07959,133.213455 120.005202,133.505159 119.017457,134.186598 Z" id="Shape"></path>
                        <path d="M138.147328,109.093181 L139.54564,106.88936 L152.211274,114.925635 L150.812963,117.129455 L148.634474,115.747216 C149.60986,117.905692 149.433221,120.031956 148.104557,122.126008 C146.979479,123.899197 145.374536,125.000779 143.289729,125.430755 C141.204922,125.860731 139.233705,125.486392 137.376079,124.307739 C135.518453,123.129085 134.340148,121.50507 133.841166,119.435695 C133.342184,117.366319 133.655232,115.445036 134.78031,113.671847 C136.108974,111.577796 137.957476,110.51232 140.325817,110.47542 L138.147328,109.093181 Z M146.153529,120.49727 C146.967871,119.213819 147.213422,117.86555 146.890182,116.452463 C146.566942,115.039375 145.763596,113.92566 144.480145,113.111318 C143.196694,112.296975 141.846882,112.044524 140.430709,112.353963 C139.014535,112.663402 137.899277,113.459847 137.084935,114.743298 C136.281307,116.009861 136.041114,117.349686 136.364354,118.762774 C136.687594,120.175861 137.49094,121.289576 138.774391,122.103918 C140.057842,122.918261 141.407654,123.170713 142.823827,122.861274 C144.240001,122.551835 145.349901,121.763833 146.153529,120.49727 Z" id="Shape"></path>
                        <polygon id="Path" points="143.476207 93.6498546 144.277129 90.9459826 156.955336 100.959127 156.086251 103.893115 139.999863 105.385809 140.800785 102.681937 153.845686 101.633719"></polygon>
                        <path d="M144.937495,76.9615281 L145.07375,74.3550871 L160.053296,75.1381577 L159.917041,77.7445987 L157.34056,77.6099106 C159.249993,79.0115032 160.139977,80.9506087 160.010509,83.427227 C159.900879,85.5243634 159.043476,87.271986 157.438299,88.6700947 C155.833122,90.0682033 153.932034,90.7098325 151.735034,90.5949821 C149.538034,90.4801318 147.714208,89.643779 146.263558,88.085924 C144.812907,86.5280689 144.142397,84.7005731 144.252026,82.6034367 C144.381494,80.1268184 145.468811,78.2910782 147.513977,77.0962162 L144.937495,76.9615281 Z M157.511173,82.9661211 C157.590524,81.4481938 157.142526,80.1530401 156.167179,79.0806601 C155.191833,78.0082801 153.945196,77.4324146 152.427268,77.3530634 C150.909341,77.2737122 149.609455,77.7164558 148.527611,78.6812941 C147.445767,79.6461324 146.865169,80.8875152 146.785818,82.4054425 C146.707511,83.9033971 147.156031,85.1885644 148.131377,86.2609444 C149.106724,87.3333244 150.353361,87.90919 151.871288,87.9885411 C153.389216,88.0678923 154.689101,87.6251487 155.770946,86.6603104 C156.85279,85.6954721 157.432866,84.4640757 157.511173,82.9661211 Z" id="Shape"></path>
                        <path d="M141.399041,69.1013661 C141.473591,69.5957772 141.368113,70.0364295 141.082608,70.423323 C140.797103,70.8102166 140.417032,71.0394474 139.942398,71.1110154 C139.467763,71.1825835 139.032055,71.0763603 138.635273,70.7923458 C138.238492,70.5083313 138.002826,70.1191185 137.928276,69.6247075 C137.856707,69.1500729 137.96862,68.7185633 138.264014,68.3301787 C138.559408,67.9417942 138.944422,67.7118179 139.419056,67.6402498 C139.893691,67.5686818 140.324455,67.6756505 140.711349,67.961156 C141.098242,68.2466615 141.327473,68.6267315 141.399041,69.1013661 Z M159.127669,67.7630664 L144.295338,69.999568 L143.906186,67.4187423 L158.738518,65.1822407 L159.127669,67.7630664 Z" id="Shape"></path>
                        <polygon id="Path" points="156.974945 57.8932159 135.873584 63.7534694 135.17517 61.2386497 156.276531 55.3783962"></polygon>
                        <path d="M134.385818,44.3969044 L133.177494,42.0834538 L146.473187,35.1390643 L147.681511,37.4525149 L145.394652,38.6469499 C147.75153,38.8825839 149.504039,40.0995115 150.652178,42.2977328 C151.624393,44.1591298 151.775009,46.0999131 151.104028,48.1200825 C150.433047,50.140252 149.12254,51.6595919 147.172505,52.6781024 C145.22247,53.6966128 143.226782,53.904111 141.185441,53.300597 C139.144101,52.6970831 137.637323,51.4646275 136.665109,49.6032305 C135.51697,47.4050092 135.519493,45.2714222 136.672677,43.2024694 L134.385818,44.3969044 Z M148.265725,43.171885 C147.562027,41.8245881 146.517583,40.9373101 145.132394,40.510051 C143.747204,40.082792 142.380961,40.2210115 141.033664,40.9247097 C139.686367,41.6284078 138.792343,42.6707345 138.35159,44.0516897 C137.910838,45.4326449 138.042311,46.7967709 138.746009,48.1440678 C139.440448,49.4736371 140.480262,50.3520513 141.865451,50.7793104 C143.250641,51.2065694 144.616884,51.0683499 145.964181,50.3646518 C147.311478,49.6609536 148.205502,48.618627 148.646255,47.2376717 C149.087007,45.8567165 148.960164,44.5014543 148.265725,43.171885 Z" id="Shape"></path>
                        <path d="M124.945468,34.0027843 C123.495803,32.4834191 122.813619,30.6602488 122.898916,28.5332734 C122.984214,26.406298 123.82272,24.5834618 125.414436,23.0647649 C127.006152,21.546068 128.866328,20.7940225 130.994962,20.8084199 C133.123597,20.8232346 134.912747,21.5902202 136.362413,23.1095855 C138.074398,24.9038834 138.662825,26.9547257 138.127692,29.2621124 L139.994341,27.4810951 L141.796068,29.369449 L126.602416,43.8661015 L124.800689,41.9777476 L131.008381,36.0548296 C128.678425,36.4810974 126.657454,35.7970823 124.945468,34.0027843 Z M134.766979,25.0879412 C133.731504,24.0026803 132.489098,23.4465743 131.039763,23.4196232 C129.590427,23.3926721 128.315894,23.9038373 127.216163,24.9531188 C126.116432,26.0024003 125.546022,27.2515429 125.504932,28.7005466 C125.463843,30.1495503 125.961036,31.4166826 126.996511,32.5019434 C128.045793,33.6016745 129.295101,34.1650155 130.744437,34.1919666 C132.193772,34.2189177 133.468306,33.7077525 134.568037,32.658471 C135.667768,31.6091895 136.238178,30.3600469 136.279267,28.9110432 C136.320357,27.4620395 135.816261,26.1876722 134.766979,25.0879412 Z" id="Shape"></path>
                        <polygon id="Path" points="125.402572 14.082353 112.82472 32.0101984 110.688114 30.5111942 123.265965 12.5833487"></polygon>
                        <path d="M112.515157,14.1037104 C112.805104,12.7698697 112.650469,11.5715738 112.051253,10.5088226 C111.452037,9.44607142 110.500061,8.63448848 109.195326,8.07407381 C107.376046,7.29265052 105.764833,7.39508712 104.361687,8.38138359 L102.819158,6.34751906 C105.052575,4.8471688 107.51996,4.67714125 110.221315,5.83743643 C112.408125,6.776723 113.892037,8.22491352 114.67305,10.182008 C115.454063,12.1391025 115.394659,14.1651136 114.494838,16.2600414 C113.602911,18.3365927 112.190209,19.7758888 110.256733,20.5779298 C108.323256,21.3799708 106.290678,21.3231878 104.158997,20.4075807 C102.137575,19.5393326 100.794139,18.1188294 100.128688,16.1460711 C99.4632378,14.1733127 99.5606899,12.1854111 100.421045,10.182366 C100.571015,9.83321139 100.752497,9.48670822 100.96549,9.14285652 L112.515157,14.1037104 Z M105.129856,18.1472638 C106.416215,18.6997853 107.637946,18.7946518 108.795048,18.4318633 C109.952149,18.0690747 110.892246,17.3246664 111.615337,16.1986382 L102.40868,12.2441628 C102.050408,13.6357234 102.13872,14.8490662 102.673619,15.8841913 C103.208517,16.9193165 104.027263,17.673674 105.129856,18.1472638 Z" id="Shape"></path>
                        <path d="M73.7210506,21.3787727 L71.1110557,21.3736072 L71.1526176,0.373648299 L73.7626125,0.378813849 L73.7575063,2.9588088 C75.0614225,0.981385553 76.9533781,-0.00487193792 79.4333733,1.80944936e-05 C81.5333691,0.00419251318 83.3218516,0.772733672 84.7988206,2.3056598 C86.2757896,3.83858593 87.0120971,5.70504684 87.0077622,7.90504253 C87.0033889,10.1050382 86.2596992,11.96857 84.7766741,13.4956379 C83.2936489,15.0227058 81.5021383,15.7841616 79.4021425,15.7800054 C76.9221473,15.7750972 75.0341104,14.7813585 73.7380316,12.7987895 L73.7210506,21.3787727 Z M79.0983865,2.51936511 C77.5783895,2.51636998 76.3073727,3.02885547 75.2853362,4.05683473 C74.2632997,5.08481399 73.7507773,6.35880214 73.7477557,7.87879916 C73.7447607,9.39879618 74.2522363,10.674803 75.2701958,11.7068197 C76.2881553,12.7388365 77.5571335,13.2563489 79.0771305,13.2593701 C80.5771276,13.2623259 81.8381444,12.7498207 82.8601809,11.7218414 C83.8822174,10.6938621 84.3947398,9.419874 84.3977614,7.89987698 C84.4007564,6.37987995 83.8932808,5.10387309 82.8753213,4.07185639 C81.8573618,3.03983968 80.5983835,2.52234698 79.0983865,2.51936511 Z" id="Shape"></path>
                        <path d="M63.8075312,8.37917912 C63.193224,7.16023422 62.3187844,6.32645953 61.1842122,5.87785504 C60.04964,5.42925055 58.7990643,5.39786084 57.432485,5.78368591 C55.526973,6.32166734 54.3394928,7.41546382 53.8700443,9.06507534 L51.3912093,8.4556681 C52.1822242,5.88399638 53.99243,4.19875006 56.8218266,3.39992914 C59.1122905,2.75326459 61.1769177,2.94448295 63.0157082,3.97358423 C64.8544987,5.00268552 66.0836409,6.61434913 66.7031347,8.80857506 C67.3171943,10.9835534 67.1254677,12.9911741 66.1279549,14.8314372 C65.1304421,16.6717003 63.5153251,17.9070129 61.282604,18.5373749 C59.1653684,19.1351321 57.2273231,18.8770032 55.4684681,17.7629884 C53.7096131,16.6489735 52.5340241,15.0429721 51.9417011,12.9449842 C51.8384522,12.5792799 51.7613575,12.1958005 51.7104172,11.7945461 L63.8075312,8.37917912 Z M60.6142028,16.1699206 C61.9615345,15.7895297 62.9705705,15.0942087 63.6413107,14.0839574 C64.312051,13.0737062 64.5739557,11.9035221 64.427025,10.5734051 L54.7839794,13.2959172 C55.3815281,14.6027208 56.2139052,15.4899346 57.2811108,15.9575586 C58.3483163,16.4251826 59.459347,16.49597 60.6142028,16.1699206 Z" id="Shape"></path>
                        <path d="M48.0127532,19.0500139 C47.7306012,18.5432691 47.2510208,18.2780756 46.5740119,18.2544334 C45.897003,18.2307911 45.1492032,18.326684 44.3306124,18.542112 C43.5120217,18.7575399 42.6788369,18.946757 41.831058,19.1097631 C40.9832792,19.2727692 40.1479149,19.2113965 39.3249654,18.9256449 C38.5020158,18.6398932 37.8424418,18.0514315 37.3462435,17.1602597 C36.6846457,15.9720306 36.613086,14.7643037 37.1315642,13.5370791 C37.6500424,12.3098544 38.6257137,11.2973376 40.0585782,10.4995285 C41.3341771,9.78928381 42.5819695,9.46078094 43.8019554,9.51401986 C45.0219413,9.56725879 46.0819764,9.94991495 46.9820605,10.6619883 L45.6437853,12.8836137 C45.0838401,12.3713038 44.4133888,12.0922071 43.6324312,12.0463235 C42.8514737,12.0004399 42.0590939,12.2012738 41.2552919,12.6488252 C40.5039117,13.0671885 39.9638536,13.5567416 39.6351175,14.1174845 C39.3063815,14.6782274 39.3122776,15.2643932 39.6528059,15.8759817 C39.9349579,16.3827264 40.4145383,16.6479199 41.0915472,16.6715622 C41.7685561,16.6952045 42.5163559,16.5993116 43.3349466,16.3838836 C44.1535374,16.1684556 44.9891545,15.9836071 45.8417981,15.8293379 C46.6944416,15.6750688 47.5298058,15.7364415 48.3478907,16.0134562 C49.1659756,16.2904708 49.8182525,16.8658271 50.3047215,17.7395249 C50.9371311,18.8753322 51.0164355,20.0558557 50.5426346,21.2810955 C50.0688336,22.5063354 49.1679228,23.4886717 47.839902,24.2281045 C46.7739906,24.8215966 45.6922495,25.1091485 44.5946786,25.0907602 C43.4971077,25.0723719 42.500265,24.7518183 41.6041504,24.1290995 L42.919192,21.9890841 C44.0136691,22.8447242 45.2598659,22.883369 46.6577825,22.1050187 C47.3043189,21.7450317 47.7696165,21.2856591 48.0536753,20.726901 C48.337734,20.1681429 48.3240933,19.6091805 48.0127532,19.0500139 Z" id="Path"></path>
                        <path d="M40.2064407,32.1701156 C40.5980667,31.8592634 41.0327222,31.7313004 41.5104074,31.7862266 C41.9880926,31.8411528 42.3761442,32.0565964 42.6745623,32.4325573 C42.9729804,32.8085182 43.0978349,33.2392576 43.0491258,33.7247752 C43.0004166,34.2102929 42.7802491,34.6084779 42.3886231,34.9193301 C42.0126621,35.2177482 41.5827306,35.3355779 41.0988284,35.2728192 C40.6149262,35.2100605 40.223766,34.9907007 39.9253479,34.6147397 C39.6269298,34.2387788 39.5051838,33.8119557 39.56011,33.3342706 C39.6150362,32.8565854 39.8304797,32.4685338 40.2064407,32.1701156 Z M30.2175144,17.4624084 L39.5430803,29.211188 L37.4987926,30.8338364 L28.1732268,19.0850569 L30.2175144,17.4624084 Z" id="Shape"></path>
                        <path d="M26.3571977,43.5178926 L24.7001982,45.4954549 L13.6856362,36.2663529 C11.9840128,34.8405627 11.1434914,33.1578123 11.1640719,31.2181019 C11.1846523,29.2783915 11.8693029,27.5037144 13.2180234,25.8940707 C14.2969998,24.6063557 15.4697058,23.6972432 16.7361413,23.166733 C18.0025768,22.6362228 19.2871247,22.5122798 20.5897848,22.7949042 L20.1142408,25.3710171 C18.2998826,24.9205683 16.6091611,25.6304702 15.0420763,27.5007229 C14.0401696,28.6964582 13.5676797,29.8987387 13.6246066,31.1075643 C13.6815336,32.3163899 14.2542099,33.3767987 15.3426357,34.2887906 L16.9752743,35.6567786 C16.2900475,33.3605068 16.7309765,31.2772446 18.2980613,29.4069919 C19.6724717,27.7666882 21.4174781,26.867437 23.5330804,26.7092382 C25.6486827,26.5510394 27.5419656,27.1719902 29.2129291,28.5720906 C30.8838926,29.9721909 31.8228162,31.7243461 32.0296998,33.8285559 C32.2365834,35.9327658 31.65282,37.8050225 30.2784096,39.4453261 C28.6984798,41.3309088 26.7322218,42.1360978 24.3796354,41.8608931 L26.3571977,43.5178926 Z M23.6336693,29.2984238 C22.1967495,29.4251579 20.9901813,30.0710627 20.0139645,31.2361382 C19.0377477,32.4012136 18.6130064,33.7022112 18.7397405,35.139131 C18.8664746,36.5760508 19.5123794,37.7826191 20.6774549,38.7588359 C21.8272004,39.7222077 23.120533,40.1405265 24.5574528,40.0137924 C25.9943726,39.8870583 27.2009409,39.2411535 28.1771577,38.076078 C29.1533744,36.9110026 29.5781157,35.610005 29.4513816,34.1730852 C29.3246475,32.7361654 28.6864077,31.5360196 27.5366622,30.5726478 C26.3715867,29.596431 25.0705891,29.1716897 23.6336693,29.2984238 Z" id="Shape"></path>
                        <path d="M20.4545718,55.6215038 C19.7166697,57.2193462 18.6216443,58.2667452 17.1694958,58.7637006 C15.7173473,59.2606561 14.1288013,59.1108344 12.4038578,58.3142355 L4.04242096,54.4528272 L5.13669627,52.0832995 L13.3619534,55.8818184 C14.4695487,56.3933188 15.4658378,56.4899264 16.3508206,56.1716414 C17.2358035,55.8533565 17.9214672,55.1676523 18.4078118,54.1145288 C18.9528531,52.9343043 19.0253935,51.8112447 18.6254329,50.74535 C18.2254723,49.6794553 17.2628854,48.7943274 15.7376722,48.0899663 L8.52014524,44.7568288 L9.61442056,42.3873011 L23.2323959,48.6762397 L22.1381205,51.0457674 L20.1771321,50.1401602 C21.2760843,51.8152435 21.3685642,53.6423581 20.4545718,55.6215038 Z" id="Path"></path>
                        <path d="M12.4986048,81.127815 L12.7446982,77.1454114 L4.63017663,76.6439731 C3.8915855,76.5983317 3.35864179,76.7106749 3.0313455,76.9810028 C2.70404922,77.2513306 2.51690734,77.685615 2.46991986,78.2838559 C2.42293237,78.8820968 2.39226244,79.6216131 2.37791006,80.5024048 L0.0423651194,80.3580794 C-0.116438947,78.0639169 0.171210315,76.4085068 0.905312905,75.3918488 C1.6394155,74.3751909 2.93469619,73.924222 4.79115499,74.0389422 L12.9056765,74.5403805 L13.0888588,71.576035 L15.604061,71.7314624 L15.4208788,74.6958079 L18.8343675,74.9067451 L19.4519041,77.5598844 L15.2599004,77.3008388 L15.013807,81.2832424 L12.4986048,81.127815 Z" id="Path"></path>
                        <path d="M18.1699707,86.7752964 C18.1286894,86.2770035 18.2634326,85.8444018 18.5742004,85.4774912 C18.8849683,85.1105807 19.2795328,84.9073104 19.757894,84.8676802 C20.2362553,84.8280501 20.6638741,84.9632061 21.0407505,85.2731484 C21.4176269,85.5830906 21.6267057,85.9872082 21.6679871,86.4855011 C21.7076173,86.9638623 21.5670655,87.386911 21.2463318,87.7546472 C20.9255981,88.1223833 20.5260506,88.3260665 20.0476894,88.3656966 C19.5693282,88.4053267 19.1466923,88.2697579 18.7797818,87.95899 C18.4128712,87.6482222 18.2096009,87.2536577 18.1699707,86.7752964 Z M0.391520479,86.9236411 L15.3403085,85.6851995 L15.5557973,88.2862886 L0.607009326,89.5247302 L0.391520479,86.9236411 Z" id="Shape"></path>
                        <path d="M8.58830834,96.8596211 C7.37453482,97.484084 6.54808996,98.3654544 6.10897374,99.5037325 C5.66985753,100.642011 5.64891007,101.892805 6.04613138,103.256115 C6.60000334,105.157069 7.70367606,106.335376 9.35714955,106.791035 L8.76845955,109.274872 C6.19027321,108.505355 4.48997207,106.709283 3.66755613,103.886654 C3.00179084,101.601669 3.1757648,99.5355177 4.189478,97.6881992 C5.2031912,95.8408807 6.80453643,94.5983255 8.99351368,93.9605336 C11.1632894,93.3283363 13.1724409,93.5032944 15.0209681,94.4854079 C16.8694954,95.4675215 18.1182496,97.0722684 18.7672309,99.2996488 C19.3826442,101.41182 19.1407053,103.351953 18.0414141,105.120047 C16.9421229,106.888142 15.3459925,108.077099 13.253023,108.686917 C12.8881935,108.793216 12.5053712,108.87351 12.1045561,108.927798 L8.58830834,96.8596211 Z M16.4054397,99.9877927 C16.013813,98.6436839 15.3100917,97.6404884 14.2942756,96.9782062 C13.2784595,96.315924 12.1061295,96.0637983 10.7772856,96.2218292 L13.5802134,105.841808 C14.8819825,105.23337 15.7622158,104.393614 16.2209133,103.322542 C16.6796109,102.251469 16.7411197,101.139886 16.4054397,99.9877927 Z" id="Shape"></path>
                        <path d="M21.2044964,112.936959 C23.2495241,112.806339 24.8106872,113.734385 25.8879859,115.721098 L23.4881072,117.022436 C22.9307003,115.868618 22.1074654,115.063705 21.0184025,114.607698 C19.9293396,114.151692 18.6639654,114.314567 17.2222801,115.096323 L10.2336223,118.885936 L8.98948538,116.591546 L22.1756321,109.441334 L23.419769,111.735724 L21.2044964,112.936959 Z" id="Path"></path>
                        <path d="M25.6708766,122.217712 C25.221001,122.583788 25.043363,123.102218 25.1379627,123.773002 C25.2325624,124.443786 25.4571974,125.163466 25.8118677,125.932042 C26.1665379,126.700618 26.4979388,127.488129 26.8060702,128.294574 C27.1142016,129.10102 27.19922,129.93431 27.0611254,130.794444 C26.9230308,131.654577 26.4584032,132.406539 25.6672426,133.050329 C24.6123618,133.908715 23.4355436,134.189471 22.1367881,133.892597 C20.8380325,133.595723 19.6710985,132.811255 18.635986,131.539193 C17.7144834,130.406747 17.1737329,129.235215 17.0137346,128.024595 C16.8537363,126.813975 17.0459738,125.703504 17.5904472,124.693183 L20.0111565,125.624186 C19.6041701,126.264781 19.4460757,126.973587 19.5368734,127.750605 C19.627671,128.527622 19.9634063,129.272928 20.5440792,129.986524 C21.0868821,130.653581 21.6629919,131.100149 22.2724087,131.326226 C22.8818255,131.552304 23.4580106,131.444435 24.0009639,131.002619 C24.4508395,130.636542 24.6284775,130.118112 24.5338778,129.447329 C24.4392781,128.776545 24.2146431,128.056865 23.8599729,127.288289 C23.5053026,126.519713 23.17778,125.729046 22.8774051,124.916289 C22.5770302,124.103531 22.4920118,123.270241 22.6223499,122.416419 C22.752688,121.562597 23.2056809,120.820103 23.9813285,120.188937 C24.9896704,119.368421 26.1383523,119.084775 27.4273742,119.338 C28.716396,119.591224 29.8405933,120.307329 30.7999658,121.486313 C31.5699886,122.432603 32.0415008,123.447752 32.2145024,124.531758 C32.3875041,125.615765 32.2454175,126.653195 31.7882425,127.644049 L29.451942,126.721715 C30.1039413,125.494973 29.9250079,124.261083 28.9151421,123.020047 C28.4480791,122.446068 27.9147061,122.067864 27.315023,121.885435 C26.7153399,121.703007 26.1672911,121.813765 25.6708766,122.217712 Z" id="Path"></path>
                        <path d="M28.0781225,141.226654 C27.6740769,140.868398 27.4559429,140.421053 27.4237204,139.884619 C27.3914979,139.348185 27.5545145,138.877945 27.9127703,138.473899 C28.271026,138.069854 28.718371,137.85172 29.2548053,137.819497 C29.7912395,137.787275 30.2614794,137.950291 30.665525,138.308547 C31.0845352,138.680072 31.3064104,139.130734 31.3311506,139.660534 C31.3558907,140.190333 31.1891329,140.657256 30.8308772,141.061302 C30.4726215,141.465347 30.0290176,141.686799 29.5000657,141.725655 C28.9711138,141.764512 28.4971327,141.598178 28.0781225,141.226654 Z" id="Path"></path>
                    </g>
                </g>
            </g>
        </g>
    </g>
</svg>